<?xml version="1.0" encoding="utf-8"?>
<!-- Generator: Adobe Illustrator 27.5.0, SVG Export Plug-In . SVG Version: 6.00 Build 0)  -->
<svg version="1.1" id="Layer_1" xmlns="http://www.w3.org/2000/svg" xmlns:xlink="http://www.w3.org/1999/xlink" x="0px" y="0px"
	 viewBox="0 0 3000 1800" style="enable-background:new 0 0 3000 1800;" xml:space="preserve">
<rect style="fill:#FFFFFF;" width="3000" height="1800"/>
<g>
	<defs>
		<path id="XMLID_00000068654627042268037040000012979533269042058116_" d="M507.069,1548.369h2185.514l-77.971-637.491
			c-85.056-579.55-715.066-772.003-1164.787-434.525c-182.644,106.209-396.251,139.8-604.827,117.293
			c-405.987-38.948-689.726,458.415-450.611,788.27C394.37,1381.907,507.069,1548.369,507.069,1548.369z"/>
	</defs>
	<use xlink:href="#XMLID_00000068654627042268037040000012979533269042058116_"  style="overflow:visible;fill:#DCECFD;"/>
	<clipPath id="XMLID_00000066509844674344763730000013548407936399248551_">
		<use xlink:href="#XMLID_00000068654627042268037040000012979533269042058116_"  style="overflow:visible;"/>
	</clipPath>
	<polygon style="opacity:0.7;clip-path:url(#XMLID_00000066509844674344763730000013548407936399248551_);fill:#F1F8FE;" points="
		307.417,1570.137 307.417,1097.083 646.675,1097.083 646.675,856.643 1250.226,856.643 1250.226,1154.743 1934.697,1154.743 
		1934.697,909.55 2411.542,909.55 2411.542,1060.883 2773.528,1060.883 2773.528,1577.706 	"/>
</g>
<g>
	<path style="fill:#324D90;" d="M2049.21,681.054h-150.633c-9.117,0-17.063,6.206-19.272,15.051l-185.619,743.364l13.668,0.016
		l184.098-737.272c1.04-4.165,4.782-7.088,9.075-7.088h148.683c3.886,0,7.036-3.15,7.036-7.036l0,0
		C2056.246,684.204,2053.095,681.054,2049.21,681.054z"/>
	<path style="fill:#324D90;" d="M2585.908,681.667H2435.03c-9.117,0-17.063,6.206-19.271,15.051l-185.619,743.364l13.668,0.016
		l184.098-737.272c1.04-4.165,4.782-7.088,9.075-7.088h148.927c3.886,0,7.036-3.15,7.036-7.036l0,0
		C2592.944,684.817,2589.794,681.667,2585.908,681.667z"/>
	<g>
		<g>
			<path style="fill:#152E60;" d="M1881.325,1475.195c-0.304-28.703-11.256-61.568-40.085-71.688
				c-13.238-3.021-27.237-0.895-40.737-1.4c-35.748-5.225-61.27,26.389-61.981,73.089c0.722,46.705,26.227,78.303,61.98,73.085
				c13.5-0.5,27.5,1.62,40.737-1.398C1869.875,1537.14,1881.207,1503.299,1881.325,1475.195L1881.325,1475.195z"/>
			<path style="fill:#152E60;" d="M1626.57,1443.472c-6.495-20.068-22.344-41.343-45.253-41.45l0,0
				c-14.322,0.067-29.179,0.037-43.225,0.01c-27.619,0.65-49.819,33.823-49.367,74.374c0.476,39.995,22.826,72.18,50.535,71.962
				c14.016-0.055,28.038-0.056,42.057,0.002l0,0c35.025-1.591,50.389-42.593,50.204-73.174l0,0
				C1631.521,1463.829,1629.743,1453.068,1626.57,1443.472z"/>
		</g>
		<g>
			<g>
				<rect x="1972.872" y="1005.037" style="fill:#F08F3C;" width="361.057" height="445.167"/>
				<rect x="2164.817" y="1005.037" style="fill:#FDF1E6;" width="42.775" height="50.763"/>
			</g>
			<g>
				<rect x="1488.719" y="1005.037" style="fill:#F3AC4A;" width="544" height="445.167"/>
				<rect x="1728.495" y="1005.037" style="fill:#FDF1E6;" width="64.448" height="50.763"/>
			</g>
		</g>
		<g>
			<g>
				<rect x="1436.893" y="1446.298" style="fill:#324D90;" width="948.863" height="25.389"/>
				<rect x="1436.893" y="1446.298" style="fill:#152E60;" width="474.431" height="25.389"/>
			</g>
			<g>
				<g>
					<path style="fill:#152E60;" d="M2303.72,1402.022c-10.992,0.058-21.981,0.058-32.974,0
						c-74.616-10.594-78.929,143.954-9.418,146.348c10.99-0.059,21.979-0.059,32.971-0.001
						C2368.915,1558.963,2373.228,1404.415,2303.72,1402.022z"/>
					<g>
						<path style="fill:#324D90;" d="M2353.924,1475.195c-1.305,96.304-99.109,96.294-100.407-0.002
							C2254.822,1378.892,2352.626,1378.901,2353.924,1475.195z"/>
						<path style="fill:#152E60;" d="M2321.724,1475.195c-0.47,37.105-35.54,37.101-36.008-0.001
							C2286.187,1438.09,2321.257,1438.094,2321.724,1475.195z"/>
					</g>
				</g>
				<g>
					<path style="fill:#152E60;" d="M2053.917,1402.022c-10.993,0.058-21.981,0.058-32.974,0
						c-74.616-10.594-78.929,143.954-9.419,146.348c10.99-0.059,21.979-0.059,32.971-0.001
						C2119.111,1558.963,2123.424,1404.415,2053.917,1402.022z"/>
					<g>
						<path style="fill:#324D90;" d="M2104.12,1475.195c-1.305,96.304-99.109,96.294-100.407-0.002
							C2005.018,1378.892,2102.822,1378.901,2104.12,1475.195z"/>
						<path style="fill:#152E60;" d="M2071.92,1475.195c-0.47,37.105-35.54,37.101-36.008-0.001
							C2036.383,1438.091,2071.453,1438.094,2071.92,1475.195z"/>
					</g>
				</g>
			</g>
		</g>
	</g>
</g>
<g>
	<g>
		<g>
			<defs>
				<path id="XMLID_00000044165119890753263490000006028750533648683689_" d="M1465.881,648.125l-131.056,106.357l-42.359-46.375
					l-54.993,50.23c6.464,7.156,45,49.101,50.275,55.267c21.3,24.944,62.871,25.017,84.296,0.208
					c0,0.001,119.328-132.461,119.328-132.461L1465.881,648.125z"/>
			</defs>
			<use xlink:href="#XMLID_00000044165119890753263490000006028750533648683689_"  style="overflow:visible;fill:#F4D2C6;"/>
			<clipPath id="XMLID_00000060727567412604725700000002435293107052791980_">
				<use xlink:href="#XMLID_00000044165119890753263490000006028750533648683689_"  style="overflow:visible;"/>
			</clipPath>
			<polyline style="clip-path:url(#XMLID_00000060727567412604725700000002435293107052791980_);fill:#EDA19D;" points="
				1334.824,754.482 1298.91,832.533 1259.262,797.571 1321.98,736.801 1334.824,754.482 			"/>
		</g>
		<g>
			<g>
				<path style="fill:#324D90;" d="M1538.195,873.313h-121.352c-6.536,0-11.835-5.299-11.835-11.835V682.351
					c0-6.537,5.299-11.836,11.835-11.836h121.352c6.536,0,11.836,5.299,11.836,11.836v179.127
					C1550.031,868.015,1544.732,873.313,1538.195,873.313z"/>
				<rect x="1419.199" y="686.108" style="fill:#F3F5FB;" width="116.641" height="171.721"/>
				<path style="fill:#152E60;" d="M1497.67,690.911h-40.302c-2.616,0-4.736-2.12-4.736-4.736v-15.392
					c0-2.615,2.12-4.736,4.736-4.736h40.302c2.616,0,4.736,2.12,4.736,4.736v15.392
					C1502.406,688.791,1500.286,690.911,1497.67,690.911z"/>
			</g>
			<g>
				<rect x="1429.085" y="714.761" style="fill:#E3EAF4;" width="96.868" height="11.679"/>
				<rect x="1429.085" y="740.418" style="fill:#E3EAF4;" width="96.868" height="11.679"/>
				<rect x="1429.085" y="766.075" style="fill:#E3EAF4;" width="96.868" height="11.679"/>
				<rect x="1429.085" y="791.732" style="fill:#E3EAF4;" width="96.868" height="11.679"/>
				<rect x="1429.085" y="817.389" style="fill:#E3EAF4;" width="67.918" height="11.679"/>
			</g>
		</g>
		<path style="fill:#F4D2C6;" d="M1458.547,661.247c-1.825,15.361,10.735,23.325,22.701,29.343
			c17.447,10.695,41.646-6.833,36.397-26.79c-1.879-14.114-10.906-20.994-24.103-24.236
			C1478.743,634.783,1459.785,645.048,1458.547,661.247z"/>
	</g>
	
		<rect x="980.298" y="634.436" transform="matrix(-0.8856 0.4645 -0.4645 -0.8856 2317.3872 795.7725)" style="fill:#4292F3;" width="160.744" height="97.814"/>
	<g>
		<defs>
			<path id="XMLID_00000062161235526974464300000003887890923914950303_" d="M960.896,780.526l46.211-30.935l-32.289-56.893
				c-27.335,16.113-72.297,32.817-71.67,71.23c2.469,15.705-18.195,190.144-1.26,197.656v0c19.947,22.707,41.882,4.121,60.17-9.336
				c0,0-25.559-0.256-25.559-0.256L960.896,780.526z"/>
		</defs>
		<use xlink:href="#XMLID_00000062161235526974464300000003887890923914950303_"  style="overflow:visible;fill:#F4D2C6;"/>
		<clipPath id="XMLID_00000017514726138144954260000003002052380156072372_">
			<use xlink:href="#XMLID_00000062161235526974464300000003887890923914950303_"  style="overflow:visible;"/>
		</clipPath>
		<polygon style="clip-path:url(#XMLID_00000017514726138144954260000003002052380156072372_);fill:#EDA19D;" points="
			954.471,693.782 971.19,760.696 1009.522,735.738 983.271,678.479 		"/>
	</g>
	
		<rect x="1165.562" y="666.171" transform="matrix(0.7071 0.7071 -0.7071 0.7071 870.562 -671.5667)" style="fill:#4292F3;" width="160.744" height="97.814"/>
	<polygon style="fill:#3C7ED7;" points="1270.583,804.092 1251.503,699.595 1283.754,790.92 	"/>
	<g>
		<defs>
			<polygon id="XMLID_00000150097516724640465450000010519103628990847659_" points="1031.651,858.075 1043.798,1494.745 
				1086.612,1494.745 1176.342,856.643 			"/>
		</defs>
		<use xlink:href="#XMLID_00000150097516724640465450000010519103628990847659_"  style="overflow:visible;fill:#324D90;"/>
		<clipPath id="XMLID_00000072276588604016071380000000003877891418045610_">
			<use xlink:href="#XMLID_00000150097516724640465450000010519103628990847659_"  style="overflow:visible;"/>
		</clipPath>
		<path style="clip-path:url(#XMLID_00000072276588604016071380000000003877891418045610_);fill:#2A437D;" d="M1152.295,1027.65
			c-62.21,82.64-80.946,356.794-85.857,475.736h37.559l46.456-291.682L1152.295,1027.65"/>
	</g>
	<g>
		<defs>
			<polygon id="XMLID_00000033334203573623030470000016820216612782821561_" points="1273.485,858.075 1261.338,1494.745 
				1216.487,1494.745 1128.794,856.643 			"/>
		</defs>
		<use xlink:href="#XMLID_00000033334203573623030470000016820216612782821561_"  style="overflow:visible;fill:#324D90;"/>
		<clipPath id="XMLID_00000008836733952190621840000004074942710500396416_">
			<use xlink:href="#XMLID_00000033334203573623030470000016820216612782821561_"  style="overflow:visible;"/>
		</clipPath>
		<path style="clip-path:url(#XMLID_00000008836733952190621840000004074942710500396416_);fill:#2A437D;" d="M1152.295,1027.65
			c52.895,67.203,82.061,375.568,83.354,472.014h-34.51L1152.295,1027.65"/>
	</g>
	<g>
		<g>
			<g>
				<g>
					<path style="fill:#EDA19D;" d="M1110.778,506.128c3.292,19.786-13.734,22.677-17.159,2.914
						C1090.328,489.257,1107.353,486.366,1110.778,506.128z"/>
					<path style="fill:#EDA19D;" d="M1192.738,506.128c-3.292,19.786,13.734,22.677,17.159,2.914
						C1213.188,489.257,1196.163,486.366,1192.738,506.128z"/>
				</g>
				<g>
					<g>
						<defs>
							<path id="XMLID_00000116948713443363550560000013443306091832417680_" d="M1200.47,508.586
								c-1.212,77.96-96.219,77.951-97.423-0.002C1094.407,428.783,1206.53,428.001,1200.47,508.586z"/>
						</defs>
						<use xlink:href="#XMLID_00000116948713443363550560000013443306091832417680_"  style="overflow:visible;fill:#F4D2C6;"/>
						<clipPath id="XMLID_00000107560164606670056520000002529720955573498264_">
							<use xlink:href="#XMLID_00000116948713443363550560000013443306091832417680_"  style="overflow:visible;"/>
						</clipPath>
						<path style="clip-path:url(#XMLID_00000107560164606670056520000002529720955573498264_);fill:#EDA19D;" d="M1107.262,480.52
							c0,0,36.818,7.613,86.187-6.095c49.368-13.708,0,0,0,0l-5.342-17.643l-71.847,2.553l-8.998,18.174"/>
					</g>
					<path style="fill:#F4D2C6;" d="M1177.005,522.906c-12.689,0-37.807,0-50.493,0c6.091,17.387-7.198,104.468-7.198,104.468
						c16.278,0,48.615,0,64.889,0C1184.203,627.374,1170.914,540.293,1177.005,522.906z"/>
				</g>
			</g>
			<path style="fill:#EDA19D;" d="M1127.2,559.775c0,0,22.879,17.643,49.11,0l1.38,15.794c0,0-28.244,13.198-51.881,0.163
				L1127.2,559.775z"/>
		</g>
		<path style="fill:#59445A;" d="M1109.648,466.558c0,0,63.7,6.341,80.13-3.459c16.429-9.8,12.971-42.947,12.971-42.947
			C1193.409,421.642,1087.585,419.053,1109.648,466.558z"/>
		<path style="fill:#59445A;" d="M1110.862,445.272c0,0-17.793,5.338-19.929,12.633c-2.135,7.295,12.777,35.497,12.777,35.497l0,0
			c4.005-0.038,7.464-2.812,8.373-6.713l5.54-23.802L1110.862,445.272z"/>
		<path style="fill:#59445A;" d="M1192.525,445.272c0,0,17.793,5.338,19.929,12.633c2.135,7.295-12.777,35.497-12.777,35.497
			c-4.029,0.107-7.738-3.298-8.374-6.72c-0.109-0.466-5.539-23.794-5.539-23.794L1192.525,445.272z"/>
		<path style="fill:#34254B;" d="M1185.763,464.891c0,0,14.374-8.322,14.706-16.6
			C1200.47,448.291,1205.895,468.253,1185.763,464.891z"/>
	</g>
	<path style="fill:#152E60;" d="M1050.995,1494.745l-4.725,16.553l-51.037,21.873c-6.08,2.606-10.022,8.584-10.022,15.198l0,0
		h105.398l-3.998-53.624H1050.995z"/>
	<path style="fill:#152E60;" d="M1252.104,1494.745l4.725,16.553l51.037,21.873c6.08,2.606,10.022,8.584,10.022,15.198h-105.398
		l3.998-53.624H1252.104z"/>
	<g>
		<defs>
			<path id="XMLID_00000026134342826436035230000006749829558453260689_" d="M1252.626,685.463
				c-9.611-64.016-58.494-96.093-113.27-88.997c-43.736-1.61-83.146,42.876-88.589,89.068
				c-0.701,4.622-35.694,235.802-35.694,235.802h273.257L1252.626,685.463z"/>
		</defs>
		<use xlink:href="#XMLID_00000026134342826436035230000006749829558453260689_"  style="overflow:visible;fill:#4292F3;"/>
		<clipPath id="XMLID_00000134221270179771222780000018390243307103464864_">
			<use xlink:href="#XMLID_00000026134342826436035230000006749829558453260689_"  style="overflow:visible;"/>
		</clipPath>
		<polygon style="clip-path:url(#XMLID_00000134221270179771222780000018390243307103464864_);fill:#3C7ED7;" points="
			1123.284,927.213 1173.597,873.313 1068.201,702.198 1104.174,861.07 996.209,937.02 		"/>
	</g>
	<g>
		
			<rect x="890.797" y="739.959" transform="matrix(0.9133 -0.4073 0.4073 0.9133 -252.0884 480.7362)" style="fill:#F3AC4A;" width="224.851" height="185.147"/>
		
			<rect x="953.713" y="746.777" transform="matrix(0.9133 -0.4073 0.4073 0.9133 -225.6086 461.4609)" style="fill:#FDF1E6;" width="34.954" height="27.837"/>
	</g>
	<path style="fill:#F4D2C6;" d="M920.653,937.02c10.858,2.379,31.786,1.678,33.817,16.499l-33.817,1.706V937.02z"/>
	<path style="fill:#F4D2C6;" d="M1123.284,598.199c9.863,29.25,47.092,29.239,56.948,0
		C1180.232,598.199,1155.875,585.016,1123.284,598.199z"/>
	<polygon style="fill:#2A437D;" points="1032.703,921.39 1272.278,921.39 1033.744,967.743 	"/>
	<path style="fill:#F3F5FB;" d="M1123.284,598.199l27.169,22.02l-11.247,7.112c-17.941,9.433-20.856-15.406-25.215-26.485
		C1113.99,600.846,1118.717,598.778,1123.284,598.199z"/>
	<path style="fill:#F3F5FB;" d="M1157.261,619.694l10.579,6.564c7.423,4.605,17.158,0.346,18.813-8.231l3.279-16.994
		c0,0-7.414-2.458-9.701-2.833L1157.261,619.694z"/>
</g>
<g>
	<g>
		<rect x="527.949" y="1175.694" style="fill:#F3AC4A;" width="308.458" height="372.675"/>
		<rect x="658.348" y="1175.694" style="fill:#FDF1E6;" width="47.661" height="36.157"/>
	</g>
	<g>
		<rect x="836.407" y="1175.694" style="fill:#F08F3C;" width="161.115" height="372.675"/>
		<rect x="905.203" y="1175.694" style="fill:#FDF1E6;" width="40.829" height="36.157"/>
	</g>
</g>
<g>
	<path style="fill:#FFFFFF;" d="M2077.034,559.775h-363.497c-9.906,0-17.936-8.03-17.936-17.936V421.587
		c0-9.906,8.03-17.936,17.936-17.936h363.497c9.906,0,17.936,8.03,17.936,17.936v120.252
		C2094.969,551.745,2086.939,559.775,2077.034,559.775z"/>
	<g>
		<rect x="1726.195" y="429.584" style="fill:#DEEEFC;" width="338.18" height="19.583"/>
		<rect x="1726.195" y="471.922" style="fill:#DEEEFC;" width="338.18" height="19.583"/>
		<rect x="1726.195" y="514.259" style="fill:#DEEEFC;" width="224.5" height="19.583"/>
	</g>
</g>
<g>
	<path style="fill:#324D90;" d="M823.468,585.556c-27.244,231.03-158.263,230.82-185.448-0.004
		C640.099,463.684,821.403,463.68,823.468,585.556z"/>
	<path style="fill:#FFFFFF;" d="M780.378,580.681c-1.114,65.243-98.161,65.233-99.266-0.002
		C682.226,515.439,779.273,515.449,780.378,580.681z"/>
</g>
<g>
	<path style="fill:#D4E8FC;" d="M842.373,1045.195H556.666c-5.074,0-9.188-4.113-9.188-9.188v-99.606
		c0-5.074,4.113-9.188,9.188-9.188h285.706c5.074,0,9.188,4.113,9.188,9.188v99.606
		C851.56,1041.081,847.447,1045.195,842.373,1045.195z"/>
	<g>
		<path style="fill:#FFFFFF;" d="M828.175,1033.287H547.852c-7.639,0-13.832-6.193-13.832-13.832v-92.736
			c0-7.639,6.193-13.832,13.832-13.832h280.322c7.639,0,13.832,6.193,13.832,13.832v92.736
			C842.006,1027.095,835.814,1033.287,828.175,1033.287z"/>
		<g>
			<rect x="557.615" y="932.886" style="fill:#DEEEFC;" width="260.797" height="15.102"/>
			<rect x="557.615" y="965.536" style="fill:#DEEEFC;" width="260.797" height="15.102"/>
			<rect x="557.615" y="998.187" style="fill:#DEEEFC;" width="173.13" height="15.102"/>
		</g>
	</g>
</g>
<g>
	<path style="fill:#F08F3C;" d="M1642.676,1227.62h-153.956v107.848h153.956c6.843,0,12.39-5.547,12.39-12.39v-83.069
		C1655.066,1233.167,1649.519,1227.62,1642.676,1227.62z"/>
	<g>
		<path style="fill:#FFFFFF;" d="M1627.955,1319.552h-251.098c-6.843,0-12.39-5.547-12.39-12.39v-83.068
			c0-6.843,5.547-12.39,12.39-12.39h251.098c6.843,0,12.39,5.547,12.39,12.39v83.068
			C1640.345,1314.005,1634.798,1319.552,1627.955,1319.552z"/>
		<g>
			<rect x="1385.602" y="1229.618" style="fill:#DEEEFC;" width="233.609" height="13.528"/>
			<rect x="1385.602" y="1258.864" style="fill:#DEEEFC;" width="233.609" height="13.528"/>
			<rect x="1385.602" y="1288.111" style="fill:#DEEEFC;" width="155.081" height="13.528"/>
		</g>
	</g>
</g>
<g>
	<g>
		<g>
			<path style="fill:#324D90;" d="M2349.127,522.906l-56.703,114.078c-1.138,2.289-4.431,2.209-5.456-0.133l-14.593-33.338
				L2349.127,522.906z"/>
			<polygon style="fill:#4292F3;" points="2272.375,603.514 2232.861,590.384 2349.127,522.906 			"/>
			<polygon style="fill:#4292F3;" points="2349.127,522.906 2296.742,612.41 2343.803,628.174 			"/>
		</g>
		<g>
			<path style="fill:#324D90;" d="M2281.072,665.502l-1.488-0.563c0.659-1.74,1.306-3.476,1.942-5.207l1.492,0.548
				C2282.38,662.017,2281.731,663.757,2281.072,665.502z"/>
			<path style="fill:#324D90;" d="M1535.888,950.896l-0.27-1.566c3.551-0.613,7.164-1.501,10.738-2.64l0.482,1.516
				C1543.196,949.366,1539.511,950.271,1535.888,950.896z M1551.401,946.618l-0.563-1.488c3.317-1.254,6.73-2.765,10.144-4.491
				l0.717,1.42C1558.236,943.81,1554.771,945.344,1551.401,946.618z M1565.962,939.796l-0.771-1.391
				c3.095-1.716,6.208-3.603,9.52-5.767l0.869,1.332C1572.237,936.155,1569.09,938.06,1565.962,939.796z M1579.579,931.287
				l-0.902-1.31c2.831-1.947,5.79-4.083,9.047-6.528l0.955,1.272C1585.404,927.179,1582.427,929.327,1579.579,931.287z
				 M1592.503,921.813l-0.969-1.26c3.091-2.376,6.164-4.8,8.803-6.885l0.986,1.248
				C1598.681,917.004,1595.602,919.432,1592.503,921.813z M1605.082,911.945l-0.986-1.248c2.815-2.224,5.833-4.597,8.822-6.887
				l0.967,1.262C1610.904,907.357,1607.893,909.726,1605.082,911.945z M1617.701,902.187l-0.951-1.275
				c3.316-2.47,6.059-4.43,9.138-6.513l0.891,1.317C1623.721,897.785,1620.996,899.732,1617.701,902.187z M1630.763,893.088
				l-0.861-1.337c3.157-2.033,6.386-3.99,9.597-5.819l0.787,1.382C1637.1,889.128,1633.896,891.071,1630.763,893.088z M1644.462,885
				l-0.754-1.4c3.295-1.774,6.669-3.47,10.029-5.039l0.674,1.44C1651.078,881.558,1647.731,883.24,1644.462,885z M1943.175,884.617
				c-0.031,0-0.989-0.003-1.019-0.003l0.01-1.59c3.728,0.023,7.516-0.086,11.121-0.328l0.105,1.587
				C1950.07,884.505,1946.631,884.617,1943.175,884.617z M1937.342,884.515c-3.726-0.125-7.477-0.405-11.198-0.7l0.127-1.585
				c3.698,0.292,7.424,0.571,11.126,0.696L1937.342,884.515z M1958.199,883.881l-0.16-1.582c3.79-0.385,7.489-0.927,10.992-1.61
				l0.305,1.56C1965.785,882.942,1962.037,883.491,1958.199,883.881z M1921.359,883.405c-3.592-0.326-7.341-0.708-11.143-1.136
				l0.178-1.58c3.791,0.426,7.528,0.807,11.109,1.132L1921.359,883.405z M1905.449,881.713c-3.557-0.43-7.292-0.915-11.104-1.44
				l0.217-1.575c3.803,0.523,7.53,1.007,11.078,1.436L1905.449,881.713z M1974.05,881.219l-0.375-1.545
				c3.722-0.903,7.285-1.997,10.592-3.25l0.564,1.487C1981.463,879.188,1977.835,880.301,1974.05,881.219z M1889.593,879.603
				c-3.694-0.532-7.384-1.088-11.069-1.662l0.244-1.571c3.68,0.573,7.363,1.128,11.052,1.659L1889.593,879.603z M2047.864,879.162
				l-0.006-1.59c3.575-0.012,7.315-0.163,11.116-0.447l0.119,1.586C2055.254,878.998,2051.476,879.149,2047.864,879.162z
				 M2043.042,879.094c-3.875-0.123-7.65-0.418-11.223-0.877l0.203-1.577c3.521,0.452,7.246,0.743,11.07,0.865L2043.042,879.094z
				 M2063.889,878.286l-0.161-1.582c3.585-0.365,7.301-0.851,11.045-1.444l0.248,1.57
				C2071.25,877.428,2067.503,877.918,2063.889,878.286z M1658.758,878.035l-0.637-1.457c3.422-1.496,6.925-2.908,10.412-4.196
				l0.551,1.491C1665.626,875.15,1662.153,876.551,1658.758,878.035z M2027.042,877.487c-3.836-0.682-7.522-1.585-10.958-2.684
				l0.484-1.515c3.368,1.077,6.985,1.963,10.753,2.633L2027.042,877.487z M1873.784,877.193c-3.687-0.589-7.368-1.192-11.045-1.805
				l0.262-1.568c3.673,0.611,7.351,1.215,11.033,1.803L1873.784,877.193z M1989.303,876.054l-0.656-1.448
				c3.474-1.575,6.712-3.385,9.626-5.38l0.898,1.312C1996.181,872.584,1992.862,874.441,1989.303,876.054z M2079.763,876.026
				l-0.283-1.564c3.661-0.661,7.295-1.41,10.899-2.28l0.373,1.546C2087.118,874.605,2083.455,875.36,2079.763,876.026z
				 M1858.008,874.596c-3.681-0.62-7.356-1.243-11.028-1.868l0.266-1.567c3.671,0.623,7.346,1.248,11.026,1.867L1858.008,874.596z
				 M2011.521,873.177c-3.621-1.44-6.937-3.074-10.118-5.072l0.852-1.343c0.066,0.042,0.134,0.084,0.201,0.126l-0.407-0.495
				c2.886-2.371,5.461-5.015,7.653-7.859l1.26,0.971c-2.201,2.856-4.773,5.515-7.649,7.907c2.747,1.629,5.676,3.052,8.793,4.287
				L2011.521,873.177z M2095.414,872.539l-0.414-1.535c3.563-0.959,7.145-2.042,10.647-3.221l0.508,1.507
				C2102.621,870.479,2099.007,871.572,2095.414,872.539z M1673.581,872.274l-0.514-1.505c3.513-1.2,7.121-2.316,10.725-3.318
				l0.426,1.532C1680.644,869.977,1677.066,871.085,1673.581,872.274z M1842.247,871.927c-3.682-0.623-7.357-1.242-11.028-1.85
				l0.26-1.568c3.673,0.608,7.351,1.227,11.034,1.85L1842.247,871.927z M1826.486,869.301c-3.685-0.599-7.365-1.184-11.04-1.748
				l0.24-1.572c3.681,0.565,7.365,1.15,11.056,1.75L1826.486,869.301z M1688.822,867.762l-0.389-1.542
				c3.594-0.905,7.277-1.726,10.949-2.439l0.303,1.561C1696.042,866.05,1692.387,866.864,1688.822,867.762z M2110.695,867.697
				l-0.546-1.493c3.451-1.261,6.927-2.652,10.331-4.133l0.635,1.458C2117.681,865.023,2114.176,866.425,2110.695,867.697z
				 M1810.703,866.838c-3.897-0.578-7.517-1.088-11.064-1.56l0.209-1.576c3.557,0.473,7.184,0.984,11.088,1.563L1810.703,866.838z
				 M1997.421,865.299c-2.999-2.341-5.729-5.007-8.113-7.922l1.23-1.007c2.31,2.824,4.955,5.407,7.861,7.675L1997.421,865.299z
				 M1794.883,864.664c-3.804-0.478-7.536-0.909-11.094-1.282l0.166-1.581c3.568,0.374,7.312,0.806,11.126,1.285L1794.883,864.664z
				 M1704.378,864.486l-0.268-1.567c3.634-0.62,7.37-1.159,11.103-1.6l0.188,1.579
				C1711.695,863.336,1707.986,863.871,1704.378,864.486z M1779.021,862.906c-3.786-0.358-7.529-0.663-11.125-0.906l0.107-1.587
				c3.61,0.245,7.367,0.551,11.168,0.91L1779.021,862.906z M1720.148,862.385l-0.154-1.583c3.645-0.355,7.407-0.634,11.186-0.829
				l0.082,1.588C1727.507,861.755,1723.768,862.032,1720.148,862.385z M1763.115,861.708c-3.787-0.208-7.537-0.353-11.148-0.43
				l0.035-1.59c3.627,0.078,7.396,0.224,11.201,0.432L1763.115,861.708z M2125.49,861.56l-0.671-1.441
				c3.328-1.549,6.674-3.225,9.944-4.979l0.752,1.401C2132.218,858.31,2128.845,859.999,2125.49,861.56z M1736.035,861.358
				l-0.053-1.59c3.652-0.126,7.465-0.178,11.215-0.148l-0.01,1.59C1743.477,861.187,1739.673,861.237,1736.035,861.358z
				 M2013.733,855.503l-1.352-0.837c1.913-3.094,3.517-6.456,4.559-9.944l1.523,0.459
				C2017.381,848.802,2015.719,852.292,2013.733,855.503z M2139.72,854.219l-0.785-1.383c3.195-1.814,6.401-3.752,9.53-5.76
				l0.86,1.339C2146.171,850.438,2142.94,852.39,2139.72,854.219z M1986.419,853.451c-2.182-3.311-3.839-6.759-4.925-10.248
				l1.518-0.473c1.042,3.347,2.635,6.659,4.735,9.846L1986.419,853.451z M2153.346,845.771l-0.889-1.319
				c3.046-2.05,6.102-4.223,9.088-6.457l0.953,1.273C2159.493,841.519,2156.413,843.706,2153.346,845.771z M2019.573,840.417
				l-1.568-0.259c0.598-3.616,0.618-7.325-0.096-10.834l1.559-0.316C2020.219,832.706,2020.203,836.61,2019.573,840.417z
				 M1980.376,838.429c-0.592-3.798-0.561-7.746,0.495-11.424l1.529,0.435c-0.992,3.457-1.009,7.17-0.454,10.741L1980.376,838.429z
				 M2166.326,836.341l-0.979-1.253c2.888-2.257,5.792-4.637,8.63-7.072l1.035,1.207
				C2172.156,831.674,2169.234,834.069,2166.326,836.341z M2178.639,826.048l-1.058-1.186c2.733-2.439,5.482-4.998,8.171-7.608
				l1.107,1.141C2184.155,821.02,2181.389,823.595,2178.639,826.048z M2016.565,824.889c-1.363-3.331-3.693-6.559-6.341-8.548
				l0.967-1.263c2.871,2.159,5.375,5.613,6.843,9.203L2016.565,824.889z M1984.152,823.185l-1.393-0.768
				c1.889-3.423,4.659-6.262,8.012-8.211l0.799,1.375C1988.466,817.385,1985.901,820.015,1984.152,823.185z M2190.288,815.006
				l-1.127-1.121c2.586-2.602,5.184-5.317,7.719-8.072l1.17,1.077C2195.5,809.659,2192.889,812.39,2190.288,815.006z
				 M2006.258,814.114c-3.26-1.252-6.933-1.37-10.472-0.345l-0.443-1.527c3.869-1.122,7.903-0.988,11.485,0.388L2006.258,814.114z
				 M2201.285,803.317l-1.188-1.058c2.441-2.74,4.892-5.59,7.282-8.472l1.225,1.016
				C2206.201,797.7,2203.738,800.565,2201.285,803.317z M2211.652,791.075l-1.238-0.997c2.302-2.859,4.61-5.825,6.863-8.815
				l1.27,0.957C2216.284,785.223,2213.964,788.203,2211.652,791.075z M2221.417,778.355l-1.283-0.939
				c2.178-2.975,4.353-6.04,6.463-9.11l1.311,0.9C2225.789,772.29,2223.605,775.368,2221.417,778.355z M2230.607,765.227
				l-1.322-0.885c2.044-3.052,4.09-6.203,6.082-9.365l1.346,0.848C2234.712,759,2232.658,762.163,2230.607,765.227z
				 M2239.251,751.747l-1.355-0.832c1.927-3.136,3.851-6.361,5.721-9.586l1.375,0.798
				C2243.115,745.363,2241.184,748.6,2239.251,751.747z M2247.376,737.964l-1.385-0.783c1.813-3.205,3.621-6.494,5.376-9.776
				l1.402,0.75C2251.009,731.448,2249.195,734.748,2247.376,737.964z M2255.009,723.919l-1.41-0.735
				c1.701-3.261,3.398-6.606,5.046-9.943l1.426,0.704C2258.418,717.292,2256.715,720.648,2255.009,723.919z M2262.175,709.628
				l-1.432-0.69c1.602-3.324,3.198-6.728,4.741-10.115l1.447,0.66C2265.383,702.88,2263.783,706.294,2262.175,709.628z
				 M2268.905,695.106l-1.453-0.647c1.497-3.361,2.99-6.811,4.44-10.253l1.465,0.617
				C2271.903,688.275,2270.406,691.735,2268.905,695.106z M2275.201,680.39l-1.471-0.604c1.406-3.426,2.801-6.917,4.142-10.376
				l1.483,0.575C2278.009,673.453,2276.612,676.954,2275.201,680.39z"/>
			<path style="fill:#324D90;" d="M1525.466,951.965l-0.053-1.59c1.833-0.06,3.682-0.19,5.495-0.385l0.17,1.58
				C1529.226,951.771,1527.338,951.903,1525.466,951.965z"/>
		</g>
	</g>
	<path style="fill:#324D90;" d="M1514.271,951.28c-3.64-0.835-7.226-2.077-10.658-3.69l0.676-1.439
		c3.331,1.565,6.809,2.77,10.338,3.579L1514.271,951.28z M1499.327,945.338c-3.254-1.9-6.314-4.141-9.098-6.66l1.066-1.18
		c2.702,2.446,5.675,4.622,8.834,6.467L1499.327,945.338z M1486.789,935.271c-2.565-2.783-4.803-5.811-6.705-9.072l1.373-0.801
		c1.845,3.162,4.013,6.096,6.502,8.795L1486.789,935.271z M1477.837,921.91c-1.59-3.4-2.83-6.985-3.688-10.656l1.549-0.361
		c0.832,3.564,2.036,7.043,3.58,10.344L1477.837,921.91z M1473.257,906.497c-0.53-3.743-0.666-7.521-0.396-11.273l1.586,0.114
		c-0.262,3.64-0.129,7.304,0.385,10.937L1473.257,906.497z"/>
</g>
<path style="fill:#152E60;" d="M228.872,1549.593c851.623-3.349,1741.285-3.377,2592.898,0
	C1970.146,1552.97,1080.485,1552.942,228.872,1549.593L228.872,1549.593z"/>
</svg>
